<svg width="32" height="32" viewBox="0 0 1200 1200" xmlns="http://www.w3.org/2000/svg">
 <path fill="#ededed" d="m600 0c-331.38 0-600 268.62-600 600s268.62 600 600 600 600-268.62 600-600-268.62-600-600-600zm-377.55 457.34c-5.6641 15.004-19.957 24.27-35.109 24.27-4.3906 0-8.8906-0.78906-13.277-2.4375-19.395-7.3164-29.148-28.961-21.832-48.352 46.062-121.88 141.34-220.95 261.46-271.73 18.98-8.0273 41.074 0.78906 49.18 19.918 8.0664 19.094-0.82422 41.074-19.918 49.18-101.32 42.91-181.68 126.41-220.5 229.16zm377.55 369.49c-125.25 0-226.83-101.58-226.83-226.83s101.58-226.83 226.83-226.83 226.83 101.58 226.83 226.83-101.58 226.83-226.83 226.83z"/>
 <path fill="#ededed" d="m675.55 600c0 41.723-33.824 75.547-75.547 75.547s-75.547-33.824-75.547-75.547 33.824-75.547 75.547-75.547 75.547 33.824 75.547 75.547z"/>
</svg>
